<svg xmlns="http://www.w3.org/2000/svg" width="164" height="36" viewBox="0 0 164 36" fill="none"><path d="M67.3698 8.04375C66.9973 8.04375 66.6248 8.04375 66.2523 8.04375C65.8797 8.04375 65.5185 8.04375 65.1573 8.04375L59.4114 23.0625L53.135 7.95375C52.4689 7.97625 51.7126 7.99875 50.8434 8.02125C49.9855 8.04375 49.1049 8.055 48.2132 8.055C47.739 8.055 47.2423 8.04375 46.7456 8.02125C46.2489 7.99875 45.8313 7.97625 45.5039 7.95375V8.5725C46.1474 8.595 46.644 8.67375 46.9827 8.80875C47.3214 8.94375 47.5584 9.19125 47.6713 9.55125C47.7842 9.91125 47.8406 10.4738 47.8406 11.2388V25.2113C47.8406 26.2013 47.7842 26.9888 47.6713 27.5513C47.5584 28.125 47.3326 28.53 47.0053 28.7775C46.6779 29.025 46.1699 29.205 45.5039 29.3062V29.925C45.8313 29.88 46.2489 29.8575 46.7456 29.8463C47.2423 29.835 47.7277 29.835 48.2132 29.835C48.7776 29.835 49.3759 29.835 50.0193 29.8463C50.6628 29.8575 51.182 29.88 51.5771 29.925V29.3062C50.6628 29.205 49.9967 29.025 49.5678 28.7663C49.1388 28.5075 48.8679 28.0688 48.7437 27.4613C48.6195 26.8538 48.5518 25.9763 48.5518 24.84V9.9675L56.9618 29.97H57.4585L64.9654 10.4175V26.6513C64.9654 27.3938 64.8976 27.9563 64.7735 28.3275C64.6493 28.6988 64.4009 28.9463 64.0397 29.07C63.6785 29.1938 63.1366 29.2725 62.4367 29.3175V29.9363C62.9786 29.8913 63.6785 29.8688 64.559 29.8575C65.4282 29.8463 66.3651 29.8463 67.3585 29.8463C68.2729 29.8463 69.176 29.8463 70.0565 29.8575C70.937 29.8688 71.6708 29.8913 72.2578 29.9363V29.3175C71.5917 29.2725 71.095 29.1938 70.7564 29.07C70.4177 28.9463 70.2032 28.6988 70.0904 28.3275C69.9775 27.9563 69.921 27.3938 69.921 26.6513V11.25C69.921 10.485 69.9775 9.9225 70.0904 9.5625C70.2032 9.2025 70.429 8.955 70.7564 8.82C71.0838 8.685 71.5917 8.60625 72.2578 8.58375V7.95375C71.6708 7.97625 70.9483 7.99875 70.0565 8.02125C69.1873 8.0325 68.2842 8.04375 67.3698 8.04375Z" fill="#1B3C74"></path><path d="M78.6128 20.34H87.3502C87.3502 17.8987 86.8309 16.1325 85.7923 15.0637C84.7538 13.9837 83.3202 13.4437 81.4914 13.4437C80.0126 13.4437 78.7031 13.7587 77.5517 14.3887C76.4003 15.0187 75.4972 15.975 74.8425 17.2575C74.1877 18.54 73.8604 20.1487 73.8604 22.0725C73.8604 23.9512 74.1651 25.515 74.7747 26.73C75.3843 27.9562 76.2309 28.8562 77.3146 29.4637C78.3983 30.06 79.6401 30.3637 81.0512 30.3637C82.2139 30.3637 83.2073 30.1275 84.0426 29.655C84.878 29.1825 85.5553 28.5637 86.0971 27.8212C86.639 27.0787 87.0341 26.3137 87.2824 25.5262L86.718 25.335C86.0746 26.37 85.386 27.045 84.6409 27.3487C83.9072 27.6637 83.2186 27.81 82.5977 27.81C81.9542 27.81 81.3221 27.6075 80.7012 27.2025C80.0803 26.7975 79.5611 26.1562 79.1547 25.2562C78.7483 24.3675 78.5451 23.2087 78.5451 21.78C78.5451 21.4875 78.5451 21.2062 78.5564 20.9475C78.579 20.7562 78.5903 20.5425 78.6128 20.34ZM81.2995 14.1075C81.8188 14.1075 82.2365 14.3662 82.5412 14.8837C82.8573 15.4012 83.0831 16.0875 83.2298 16.9537C83.3766 17.8087 83.433 18.7537 83.4218 19.7662H78.5451C78.658 17.7975 78.9515 16.3575 79.4482 15.48C79.9562 14.5575 80.577 14.1075 81.2995 14.1075Z" fill="#1B3C74"></path><path d="M104.486 26.5275V5.625C103.843 5.77125 103.132 5.88375 102.364 5.95125C101.596 6.03 100.784 6.06375 99.937 6.06375C99.3161 6.06375 98.6727 6.03 98.0066 5.97375V6.62625C98.7743 6.62625 99.3048 6.85125 99.5758 7.29C99.858 7.74 99.9934 8.42625 99.9934 9.36V14.6588C99.6886 14.3438 99.35 14.085 98.9549 13.9163C98.255 13.6125 97.4535 13.4663 96.5391 13.4663C95.2071 13.4663 94.0218 13.7813 92.972 14.4C91.9221 15.0188 91.0981 15.9525 90.4998 17.1788C89.9015 18.4163 89.5967 19.9688 89.5967 21.8475C89.5967 23.8388 89.8676 25.4588 90.4094 26.7075C90.9513 27.9563 91.7076 28.89 92.6672 29.4863C93.6267 30.0825 94.733 30.3863 95.9521 30.3863C97.0697 30.3863 97.9841 30.105 98.684 29.5313C99.271 29.0475 99.6886 28.3388 100.005 27.4725V30.2625C100.648 30.0938 101.348 29.9813 102.104 29.925C102.861 29.8575 103.673 29.835 104.554 29.835C105.197 29.835 105.841 29.8688 106.484 29.925V29.2725C105.739 29.2725 105.22 29.0475 104.927 28.6088C104.633 28.1475 104.486 27.4613 104.486 26.5275ZM99.1242 28.2038C98.5598 28.7663 97.9276 29.0363 97.2277 29.0363C96.6407 29.0363 96.1327 28.8113 95.6812 28.35C95.2297 27.8888 94.891 27.1463 94.6539 26.1C94.4169 25.0538 94.2927 23.6475 94.2927 21.8925C94.2701 19.3275 94.5749 17.4263 95.1958 16.1888C95.8167 14.9625 96.6633 14.3438 97.7244 14.3438C98.2211 14.3438 98.6952 14.4563 99.1468 14.67C99.4854 14.8388 99.7677 15.1088 100.005 15.4463V26.0888C99.9257 26.9663 99.6548 27.675 99.1242 28.2038Z" fill="#1B3C74"></path><path d="M111.835 10.6537C112.704 10.6537 113.393 10.44 113.912 10.0125C114.42 9.585 114.68 9 114.68 8.2575C114.68 7.515 114.42 6.93 113.912 6.5025C113.404 6.075 112.715 5.8725 111.835 5.8725C110.966 5.8725 110.277 6.08625 109.758 6.5025C109.25 6.93 108.99 7.515 108.99 8.2575C108.99 9 109.25 9.585 109.758 10.0125C110.277 10.44 110.966 10.6537 111.835 10.6537Z" fill="#1B3C74"></path><path d="M114.262 27.0562V13.545C113.619 13.6912 112.919 13.8037 112.163 13.8712C111.406 13.95 110.594 13.9837 109.713 13.9837C109.092 13.9837 108.449 13.95 107.783 13.8937V14.5462C108.55 14.5462 109.081 14.7712 109.352 15.21C109.634 15.66 109.77 16.3462 109.77 17.28V27.0562C109.77 27.9225 109.623 28.5187 109.318 28.8225C109.013 29.1375 108.505 29.2837 107.771 29.2837V29.9362C108.189 29.9137 108.81 29.8912 109.645 29.8575C110.481 29.8237 111.293 29.8125 112.106 29.8125C112.919 29.8125 113.721 29.8237 114.511 29.8575C115.301 29.8912 115.888 29.9137 116.26 29.9362V29.2837C115.538 29.2837 115.019 29.1262 114.714 28.8225C114.42 28.5075 114.262 27.9225 114.262 27.0562Z" fill="#1B3C74"></path><path d="M133.589 27.0562V18.6975C133.589 17.64 133.51 16.8075 133.352 16.1775C133.194 15.5587 132.956 15.0525 132.618 14.6587C132.302 14.2875 131.873 13.995 131.331 13.77C130.778 13.5562 130.067 13.4437 129.197 13.4437C128.091 13.4437 127.098 13.6575 126.206 14.0962C125.314 14.535 124.603 15.2775 124.084 16.335V13.545C123.44 13.6912 122.74 13.8037 121.984 13.8712C121.228 13.95 120.415 13.9837 119.534 13.9837C118.914 13.9837 118.27 13.95 117.604 13.8937V14.5462C118.372 14.5462 118.902 14.7712 119.173 15.21C119.455 15.66 119.591 16.3462 119.591 17.28V27.0562C119.591 27.9225 119.444 28.5187 119.139 28.8225C118.835 29.1375 118.327 29.2837 117.593 29.2837V29.9362C118.01 29.9137 118.631 29.8913 119.467 29.8575C120.302 29.8237 121.104 29.8125 121.894 29.8125C122.661 29.8125 123.406 29.8237 124.118 29.8575C124.84 29.8913 125.382 29.9137 125.754 29.9362V29.2837C125.156 29.2837 124.716 29.1262 124.456 28.8225C124.197 28.5075 124.072 27.9225 124.072 27.0562V18.4275C124.072 17.3925 124.366 16.5375 124.964 15.8512C125.551 15.165 126.285 14.8275 127.165 14.8275C127.707 14.8275 128.114 14.94 128.385 15.1537C128.656 15.3675 128.836 15.6712 128.949 16.0537C129.051 16.4362 129.107 16.8862 129.107 17.4037V27.0562C129.107 27.9225 128.983 28.5187 128.735 28.8225C128.486 29.1375 128.046 29.2837 127.425 29.2837V29.9362C127.82 29.9137 128.396 29.8913 129.152 29.8575C129.909 29.8237 130.687 29.8125 131.478 29.8125C132.245 29.8125 133.024 29.8237 133.814 29.8575C134.605 29.8913 135.192 29.9137 135.587 29.9362V29.2837C134.864 29.2837 134.345 29.1262 134.04 28.8225C133.735 28.5075 133.589 27.9225 133.589 27.0562Z" fill="#1B3C74"></path><path d="M143.217 27.0562V13.545C142.574 13.6912 141.874 13.8037 141.118 13.8712C140.361 13.95 139.549 13.9837 138.668 13.9837C138.047 13.9837 137.404 13.95 136.738 13.8937V14.5462C137.505 14.5462 138.036 14.7712 138.307 15.21C138.589 15.66 138.725 16.3462 138.725 17.28V27.0562C138.725 27.9225 138.578 28.5187 138.273 28.8225C137.968 29.1375 137.46 29.2837 136.727 29.2837V29.9362C137.144 29.9137 137.765 29.8912 138.6 29.8575C139.436 29.8237 140.249 29.8125 141.061 29.8125C141.874 29.8125 142.676 29.8237 143.466 29.8575C144.256 29.8912 144.843 29.9137 145.216 29.9362V29.2837C144.493 29.2837 143.974 29.1262 143.669 28.8225C143.364 28.5075 143.217 27.9225 143.217 27.0562Z" fill="#1B3C74"></path><path d="M140.779 10.6537C141.648 10.6537 142.337 10.44 142.856 10.0125C143.364 9.585 143.624 9 143.624 8.2575C143.624 7.515 143.364 6.93 142.856 6.5025C142.348 6.075 141.66 5.8725 140.779 5.8725C139.899 5.8725 139.221 6.08625 138.702 6.5025C138.194 6.93 137.935 7.515 137.935 8.2575C137.935 9 138.194 9.585 138.702 10.0125C139.221 10.44 139.91 10.6537 140.779 10.6537Z" fill="#1B3C74"></path><path d="M163.096 28.665C162.848 28.3725 162.611 28.0462 162.374 27.675L157.147 18.9562L159.134 16.8975C159.8 16.2562 160.455 15.7275 161.098 15.3112C161.742 14.895 162.385 14.625 163.029 14.5012V13.8825C162.78 13.905 162.442 13.9162 162.035 13.9275C161.617 13.9387 161.177 13.95 160.714 13.9612C160.252 13.9725 159.8 13.9725 159.394 13.9725C158.919 13.9725 158.332 13.9612 157.644 13.9387C156.955 13.9162 156.323 13.8937 155.747 13.8712V14.49C156.47 14.5125 157.057 14.6812 157.508 14.985C157.96 15.3 158.174 15.705 158.174 16.2225C158.174 16.74 157.825 17.3362 157.113 17.9887L154.743 20.2837C154.472 20.5762 154.178 20.7675 153.851 20.8687C153.569 20.9587 153.23 21.015 152.869 21.06V5.625C152.225 5.77125 151.514 5.88375 150.747 5.95125C149.979 6.03 149.166 6.06375 148.32 6.06375C147.699 6.06375 147.055 6.03 146.389 5.97375V6.62625C147.157 6.62625 147.687 6.85125 147.958 7.29C148.229 7.72875 148.376 8.42625 148.376 9.36V27.0562C148.376 27.9225 148.229 28.5187 147.924 28.8225C147.62 29.1375 147.112 29.2837 146.378 29.2837V29.9362C146.796 29.9137 147.416 29.8912 148.229 29.8575C149.053 29.8237 149.866 29.8125 150.679 29.8125C151.469 29.8125 152.237 29.8237 153.004 29.8575C153.761 29.8912 154.336 29.9137 154.731 29.9362V29.2837C154.043 29.2837 153.569 29.1262 153.287 28.8225C153.004 28.5075 152.869 27.9225 152.869 27.0562V21.7462C153.174 21.78 153.467 21.825 153.659 21.915C153.896 22.0275 154.144 22.2862 154.393 22.68L157.475 28.2375C157.666 28.5525 157.678 28.8 157.542 29.0025C157.396 29.205 157.113 29.295 156.707 29.295V29.9475C157.079 29.925 157.655 29.9025 158.423 29.8687C159.19 29.835 159.958 29.8237 160.726 29.8237C161.347 29.8237 161.967 29.835 162.6 29.8687C163.22 29.9025 163.695 29.925 163.999 29.9475V29.295C163.649 29.16 163.345 28.9575 163.096 28.665Z" fill="#1B3C74"></path><path d="M18.0617 36C28.0369 36 36.1234 27.9411 36.1234 18C36.1234 8.05887 28.0369 0 18.0617 0C8.08649 0 0 8.05887 0 18C0 27.9411 8.08649 36 18.0617 36Z" fill="#2AA7FF"></path><path d="M18.6604 17.6625L22.2163 17.6512L22.2276 21.195C22.2276 21.6337 22.5888 21.9937 23.0291 21.9937L25.7835 21.9825C26.2238 21.9825 26.585 21.6225 26.585 21.1837L26.5737 17.64L30.1296 17.6287C30.5698 17.6287 30.9311 17.2687 30.9311 16.83L30.9198 14.085C30.9198 13.6462 30.5586 13.2862 30.1183 13.2862L26.5624 13.2975L26.5511 9.75374C26.5511 9.31499 26.1899 8.95499 25.7496 8.95499L22.9952 8.96624C22.555 8.96624 22.1937 9.32624 22.1937 9.76499L22.205 13.3087L18.6491 13.32C18.2089 13.32 17.8477 13.68 17.8477 14.1187L17.8589 16.8637C17.8589 17.3025 18.2202 17.6625 18.6604 17.6625Z" fill="white"></path><path d="M9.10968 13.8825H10.1821V14.9513C10.1821 15.0863 10.295 15.1875 10.4304 15.1875H11.2658C11.4013 15.1875 11.5028 15.075 11.5028 14.94V13.8712H12.5753C12.7107 13.8712 12.8123 13.7587 12.8123 13.6237V12.7912C12.8123 12.6562 12.6994 12.555 12.564 12.555H11.4916V11.4863C11.4916 11.3513 11.3787 11.25 11.2432 11.25H10.4079C10.2724 11.25 10.1708 11.3625 10.1708 11.4975V12.5663H9.09839C8.96293 12.5663 8.86133 12.6788 8.86133 12.8138V13.6463C8.87262 13.7813 8.97421 13.8825 9.10968 13.8825Z" fill="white"></path><path d="M14.2682 7.32375H15.6454V8.69625C15.6454 8.865 15.7809 9.01125 15.9615 9.01125H17.0339C17.2033 9.01125 17.35 8.87625 17.35 8.69625V7.32375H18.7272C18.8965 7.32375 19.0433 7.18875 19.0433 7.00875V5.94C19.0433 5.77125 18.9078 5.625 18.7272 5.625H17.35V4.2525C17.35 4.08375 17.2145 3.9375 17.0339 3.9375H15.9615C15.7922 3.9375 15.6454 4.0725 15.6454 4.2525V5.625H14.2682C14.0989 5.625 13.9521 5.76 13.9521 5.94V7.00875C13.9521 7.1775 14.0989 7.32375 14.2682 7.32375Z" fill="white"></path><path d="M27.1715 26.64C26.7313 26.19 23.7963 27.5625 21.5047 27.54C19.2244 27.5175 16.3684 27.4838 15.2508 26.3475C15.2508 26.3475 15.3863 26.4038 15.6798 26.46C15.7362 26.4713 15.804 26.4825 15.8717 26.505C15.8943 26.505 15.9056 26.5163 15.9281 26.5163C15.9846 26.5275 16.041 26.5388 16.0975 26.55C16.12 26.55 16.1539 26.5613 16.1765 26.5613C16.2329 26.5725 16.3007 26.5838 16.3571 26.595C16.391 26.595 16.4135 26.6063 16.4474 26.6063C16.5377 26.6175 16.628 26.6288 16.7296 26.64C16.7409 26.64 16.7409 26.64 16.7409 26.64C16.8425 26.6513 16.9554 26.6625 17.0796 26.6738C17.1134 26.6738 17.1473 26.685 17.1925 26.685C17.2828 26.6963 17.3731 26.6963 17.4634 26.7075C17.5085 26.7075 17.5537 26.7075 17.5988 26.7188C17.6891 26.7188 17.7907 26.73 17.8923 26.73C17.9375 26.73 17.9827 26.73 18.0278 26.73C18.1746 26.73 18.3326 26.7413 18.4906 26.7413C18.7503 26.7413 18.9873 26.7413 19.2131 26.7413C19.3373 26.7413 19.4502 26.7413 19.5518 26.73C19.8566 26.7188 20.1162 26.7075 20.3532 26.6738C20.6242 26.6513 20.8499 26.6063 21.0306 26.5613C21.4031 26.46 21.595 26.325 21.595 26.1338C21.595 25.6838 21.1096 25.0763 20.2517 25.0538C17.3053 25.0088 15.9959 23.5013 14.122 22.6575C13.3882 22.3313 12.5754 22.095 11.5482 22.095C11.4353 22.095 11.3337 22.095 11.2208 22.1063C11.1869 22.1063 11.1531 22.1175 11.1192 22.1175C11.0515 22.1175 10.9725 22.1288 10.9047 22.14C10.8596 22.14 10.8257 22.1513 10.7806 22.1513C10.7128 22.1625 10.6564 22.1738 10.5887 22.185C10.5435 22.1963 10.5096 22.1963 10.4645 22.2075C10.3967 22.2188 10.3403 22.23 10.2726 22.2413C10.2274 22.2525 10.1936 22.2638 10.1484 22.275C10.0807 22.2863 10.0242 22.3088 9.9565 22.32C9.92263 22.3313 9.87748 22.3425 9.84361 22.3538C9.77588 22.3763 9.70815 22.3988 9.64042 22.4213C9.60655 22.4325 9.58397 22.4438 9.55011 22.455C9.4598 22.4888 9.3582 22.5225 9.26789 22.5675C9.25661 22.5675 9.25661 22.5788 9.24532 22.5788C9.15501 22.6125 9.07599 22.6463 8.98568 22.6913C8.95182 22.7025 8.92924 22.725 8.89537 22.7363C8.83893 22.77 8.7712 22.7925 8.71476 22.8263C8.68089 22.8488 8.64702 22.86 8.61316 22.8825C8.56801 22.905 8.52285 22.9275 8.4777 22.95C7.81167 23.355 6.97632 24.0075 6.69411 24.4125C6.01679 25.5375 6.29901 27.0675 7.4843 27.855C8.90666 28.7775 10.6451 29.7563 12.3045 30.4763C12.3158 30.4763 12.3158 30.4875 12.3271 30.4875C12.3722 30.51 12.4061 30.5213 12.4513 30.5438C12.5303 30.5775 12.6206 30.6113 12.6996 30.645C12.8012 30.69 12.9028 30.7238 13.0044 30.7688C13.0834 30.8025 13.1624 30.8363 13.2415 30.8588C13.3431 30.8925 13.4447 30.9375 13.535 30.9713C13.614 30.9938 13.693 31.0275 13.772 31.05C13.8736 31.0838 13.9639 31.1175 14.0655 31.14C14.1445 31.1625 14.2123 31.185 14.2913 31.2075C14.3929 31.2413 14.4832 31.2638 14.5735 31.2863C14.6412 31.3088 14.709 31.32 14.788 31.3425C14.8896 31.365 14.9799 31.3875 15.0702 31.3988C15.1379 31.41 15.1944 31.4213 15.2621 31.4325C15.3637 31.455 15.454 31.4663 15.5556 31.4775C15.6008 31.4888 15.6572 31.4888 15.7024 31.5C15.8491 31.5113 15.9846 31.5225 16.1088 31.5225C16.4926 31.5225 16.9102 31.5113 17.3505 31.4888C18.0052 31.4438 18.7051 31.3538 19.4276 31.23C19.913 31.14 20.3984 31.0275 20.8951 30.8925C22.6335 30.42 24.4284 29.6663 25.9862 28.5188C26.4378 28.1925 26.8554 27.8325 27.2618 27.4388C27.2844 27.405 27.6118 27.09 27.1715 26.64Z" fill="white"></path></svg>